<svg id="Layer_1" data-name="Layer 1" xmlns="http://www.w3.org/2000/svg" viewBox="0 0 88.76 88.76"><defs><style>.cls-1{fill:#010101;}</style></defs><title>WasteSearch_Icon1</title><rect class="cls-1" x="54.36" y="26.58" width="9.8" height="8.78"/><rect class="cls-1" x="54.36" y="50.41" width="9.8" height="8.78"/><path class="cls-1" d="M594.93,376.81a44.38,44.38,0,1,0,44.38,44.38A44.38,44.38,0,0,0,594.93,376.81Zm-6.56,67.79h-7.26v-7.39h7.26Zm10.49,0h-6.13V435a2.17,2.17,0,0,0-2.18-2.18H578.93a2.17,2.17,0,0,0-2.18,2.18v9.57h-6.14V426.41l14.13-14.12,14.12,14.12Zm20.39,0h-16V425.51a2.2,2.2,0,0,0-.63-1.53L586.92,408.3V397.79h32.33Z" transform="translate(-550.55 -376.81)"/><rect class="cls-1" x="40.91" y="26.58" width="9.81" height="8.78"/></svg>