<svg id="Layer_1" data-name="Layer 1" xmlns="http://www.w3.org/2000/svg" viewBox="0 0 88.76 88.76"><defs><style>.cls-1{fill:#010101;}</style></defs><title>WasteSearch_Icon2</title><path class="cls-1" d="M594.93,376.81a44.38,44.38,0,1,0,44.38,44.38A44.38,44.38,0,0,0,594.93,376.81Zm-4.25,17.4,9,0a5.92,5.92,0,0,1,5.12,2.94l4.23,7.3,3.12-1.81a.92.92,0,0,1,.81-.07,1,1,0,0,1,.56,1.22l-3.68,9.87a3.11,3.11,0,0,1-3.41,2L596,413.89a1,1,0,0,1-.69-.47.94.94,0,0,1,.36-1.29l3.12-1.81-9.25-16A7,7,0,0,1,590.68,394.21Zm-18,46.43-4.52-7.78a5.9,5.9,0,0,1,0-5.93l4.15-7.29-3.12-1.79a.91.91,0,0,1-.47-.68.94.94,0,0,1,.78-1.08l10.39-1.72a3.12,3.12,0,0,1,3.45,2l3.73,9.86a1,1,0,0,1-.07.8,1,1,0,0,1-1.29.35l-3.12-1.79-9.23,16A5.92,5.92,0,0,1,572.7,440.64Zm17.35,2.93H577.83a5.94,5.94,0,0,1-1.45-.18l6.73-11.66h6.77a1.68,1.68,0,0,1,1.68,1.65l.16,8.46v0A1.68,1.68,0,0,1,590.05,443.57Zm-.28-30a1.67,1.67,0,0,1-2.24.63l-7.41-4.1h0a1.68,1.68,0,0,1-.62-2.29l6.09-10.59a5.82,5.82,0,0,1,.88-1.16l6.7,11.65Zm32.14,19.31-4.44,7.8a5.92,5.92,0,0,1-5.11,3l-8.41,0v3.6a.91.91,0,0,1-.35.75.94.94,0,0,1-1.33-.14l-6.72-8.13a3.1,3.1,0,0,1,0-3.94l6.68-8.15a1,1,0,0,1,.71-.35,1,1,0,0,1,1,.93v3.6h18.48A5.07,5.07,0,0,1,621.91,432.84ZM609,428.27l-3.4-5.86a1.67,1.67,0,0,1,.58-2.29l7.25-4.37a1.68,1.68,0,0,1,2.29.58l6.15,10.6a5.91,5.91,0,0,1,.58,1.34Z" transform="translate(-550.55 -376.81)"/></svg>